<?xml version="1.0" standalone="no"?>
<!DOCTYPE svg PUBLIC "-//W3C//DTD SVG 1.1//EN" "http://www.w3.org/Graphics/SVG/1.1/DTD/svg11.dtd">
<svg fill="#6366d6" t="1659779127494" class="icon" viewBox="0 0 1024 1024" version="1.1"
  xmlns="http://www.w3.org/2000/svg" p-id="2321" xmlns:xlink="http://www.w3.org/1999/xlink" width="200" height="200">
  <defs>
    <style type="text/css">
      @font-face {
        font-family: feedback-iconfont;
        src: url("//at.alicdn.com/t/font_1031158_u69w8yhxdu.woff2?t=1630033759944") format("woff2"), url("//at.alicdn.com/t/font_1031158_u69w8yhxdu.woff?t=1630033759944") format("woff"), url("//at.alicdn.com/t/font_1031158_u69w8yhxdu.ttf?t=1630033759944") format("truetype");
      }
    </style>
  </defs>
  <path
    d="M284.672 899.072c0-178.176 145.408-321.536 323.584-319.488 129.024 2.048 241.664 83.968 292.864 202.752 16.384 40.96 24.576 79.872 24.576 116.736 0 18.432 14.336 34.816 32.768 34.816h4.096c18.432 0 34.816-14.336 34.816-32.768 0-167.936-104.448-309.248-251.904-366.592 61.44-43.008 102.4-114.688 102.4-196.608 2.048-131.072-104.448-241.664-235.52-245.76-141.312-6.144-253.952 104.448-253.952 243.712 0 81.92 40.96 155.648 104.448 198.656-145.408 57.344-249.856 198.656-249.856 364.544v2.048c0 16.384 14.336 30.72 32.768 30.72h8.192c16.384 0 30.72-14.336 30.72-32.768z m147.456-534.528c-20.48-118.784 81.92-219.136 198.656-198.656 71.68 12.288 129.024 69.632 141.312 141.312 20.48 118.784-81.92 219.136-198.656 198.656-71.68-12.288-129.024-69.632-141.312-141.312z"
    p-id="2322"></path>
  <path
    d="M323.584 489.472c-65.536-14.336-112.64-71.68-112.64-141.312 0-69.632 49.152-126.976 114.688-141.312 12.288-2.048 22.528-14.336 22.528-28.672 0-18.432-18.432-32.768-36.864-28.672-92.16 20.48-161.792 102.4-161.792 200.704 0 69.632 34.816 131.072 88.064 167.936-122.88 47.104-208.896 167.936-208.896 307.2 0 10.24 0 18.432 2.048 28.672v2.048c0 16.384 14.336 30.72 30.72 30.72s30.72-14.336 30.72-30.72v-2.048c0-8.192-2.048-18.432-2.048-28.672 0-135.168 100.352-247.808 231.424-266.24 16.384-2.048 30.72-16.384 30.72-34.816-4.096-16.384-14.336-30.72-28.672-34.816z"
    p-id="2323"></path>
</svg>