<?xml version="1.0" standalone="no"?><!DOCTYPE svg PUBLIC "-//W3C//DTD SVG 1.1//EN" "http://www.w3.org/Graphics/SVG/1.1/DTD/svg11.dtd"><svg t="1662285199117" class="icon" viewBox="0 0 1024 1024" version="1.1" xmlns="http://www.w3.org/2000/svg" p-id="3409" xmlns:xlink="http://www.w3.org/1999/xlink" width="200" height="200"><path d="M928 563.2a32 32 0 0 1-32-32V371.2a32 32 0 0 1 64 0v160a32 32 0 0 1-32 32z" p-id="3410"></path><path d="M515.584 524.8c-20.8 0-38.848-2.816-56.896-8.96L49.28 359.872C6.336 342.336 0 315.328 0 300.8c0-14.592 6.336-41.6 48.576-58.816l405.376-155.776c31.232-12.096 84.736-12.16 116.16 0l404.672 155.52c42.88 17.408 49.216 44.48 49.216 59.072 0 14.592-6.336 41.536-48.64 58.816L570.048 515.392c-13.312 6.08-31.68 9.408-54.464 9.408zM73.92 300.8l406.464 154.752c10.432 3.584 21.248 5.248 35.2 5.248 16.512 0 25.344-2.432 29.76-4.416L950.016 300.8 547.072 145.984c-16.768-6.528-53.504-6.464-70.08 0L73.92 300.8z" p-id="3411"></path><path d="M515.584 644.16c-20.736 0-38.784-2.88-56.896-9.024L180.16 529.152l22.72-59.84 277.44 105.664c10.496 3.52 21.312 5.248 35.2 5.248 16.448 0 25.28-2.432 29.76-4.48l275.136-105.792 22.976 59.776-273.344 105.024c-13.376 6.144-31.744 9.408-54.464 9.408z" p-id="3412"></path><path d="M515.456 947.2c-164.8 0-346.304-50.368-355.328-161.024L160 499.2a32 32 0 0 1 64 0v281.024c4.416 56.128 137.92 102.976 291.456 102.976 120.768 0 232.32-28.352 271.296-68.928 9.344-9.664 13.632-19.328 13.184-29.376V501.504a32 32 0 0 1 64 0v278.72c1.152 29.632-9.6 56-30.976 78.336-62.784 65.344-205.12 88.64-317.504 88.64z" p-id="3413"></path><path d="M928 627.2m-32 0a32 32 0 1 0 64 0 32 32 0 1 0-64 0Z" p-id="3414"></path></svg>