<?xml version="1.0" encoding="utf-8"?>
<!-- Generator: Adobe Illustrator 25.0.0, SVG Export Plug-In . SVG Version: 6.00 Build 0)  -->
<svg version="1.1" id="图层_1" xmlns="http://www.w3.org/2000/svg" xmlns:xlink="http://www.w3.org/1999/xlink" x="0px" y="0px"
	 viewBox="0 0 300 240" style="enable-background:new 0 0 300 240;" xml:space="preserve">
<style type="text/css">
	.st0{fill:url(#XMLID_2_);}
	.st1{opacity:0.1;clip-path:url(#XMLID_3_);fill:#420085;}
	.st2{opacity:0.53;fill:none;stroke:#FFFFFF;stroke-width:3;stroke-linecap:round;stroke-linejoin:round;stroke-miterlimit:10;}
	.st3{fill:url(#XMLID_4_);}
	.st4{opacity:0.1;clip-path:url(#XMLID_5_);fill:#420085;}
	.st5{opacity:0.79;fill:url(#XMLID_6_);}
	.st6{fill:url(#XMLID_7_);}
	.st7{fill:url(#XMLID_8_);}
</style>
<g id="XMLID_6441_">
	<g id="XMLID_10200_">
		
			<linearGradient id="XMLID_2_" gradientUnits="userSpaceOnUse" x1="-3433.3381" y1="4.5325" x2="-3414.926" y2="208.1935" gradientTransform="matrix(1 0 0 1 3495.7629 0)">
			<stop  offset="0" style="stop-color:#95D7FF"/>
			<stop  offset="1" style="stop-color:#4277FF"/>
		</linearGradient>
		<path id="XMLID_10260_" class="st0" d="M129.21,100.24c-8.33,1.29-13.46,11.44-21.28,10.95c-7.91-0.47-0.86-3.42,4.39-9.12
			c5.25-5.75,18.59-6.93,21.55-10.35c1.55-1.81,2.63-4.86,3.31-7.37c-3.35-10.71-9.53-20.82-17.7-30.16
			c-1.54-1.77-5.5-1.63-6.49,0.25c-0.65,1.24-1.35,2.65-2.02,4.18c-2.34,5.23-9.84,8.57-13.69,8.93c-3.9,0.31,7.89-5.41,8.97-8.66
			c1-3.34,0.53-12.35,0.25-15.37c-0.12-1.37-1.18-2.94-2.33-4.26c-6.52-5.53-13.53-10.64-20.49-15.22
			c-2.63-1.73-7.16-1.57-8.57,0.41c-0.88,1.23-1.28,2.78-0.42,4.62c2.32,5.03,1.32,7.68-1.47,7.88c-2.8,0.2-0.6-1.09-1.87-6.39
			c-0.94-3.86-1.32-6.63,0.34-9.38c1.26-2.07,0.1-4.54-2.86-6.23c-8.86-5.07-16.8-9.01-22.21-11.56c-4.06-1.92-9.61-1.67-12,0.63
			c-3.6,3.43-8.87,9.03-14.01,16.68c0.3,0.68,0.5,1.14,0.8,1.82c5.71,2.88,7.57,5.87,9.73,10.67c2.34,5.21,5.06,5.98,2.47,6.33
			c-2.58,0.36-5.13-1.96-6.41-7.15c-0.58-2.36-2.63-3.98-4.71-5.05c-2.37-1.21-5.65-0.66-6.62,1.1c-2.69,4.84-5.19,10.25-7.32,16.15
			l0,0c-0.01-0.01-1.74,5.2-0.06,8.35c1.7,3.14,6.72,12.35,9.47,15.38c2.83,3,16.23,5.12,12.65,5.93
			c-3.55,0.77-11.86-0.26-16.92-4.9c-0.93-0.86-1.85-1.68-2.74-2.44c-2.81-2.43-7.9-1.2-8.33,2.07c-1.3,9.65-1.5,19.9-0.41,30.22
			c0.13,1.25,0.6,2.45,1.36,3.5c1.85,2.58,4.97,6.6,7.73,8.19c4.16,2.36,16.25-1.72,23.36,1.76c7.07,3.4,14.38,3.12,7.73,6.92
			c-6.53,3.89-15.32-3.86-23.14-1.8c-5.32,1.44-7.7,7.38-8.63,10.97c-0.44,1.66-0.34,3.39,0.3,4.92
			c3.67,8.79,8.44,17.14,14.32,24.78c1.38,1.79,4.15,1.3,5.24-0.9c1.58-3.19,3.11-7.49,5.35-8.76c3.58-2.02,4.92,1.87,0.91,4.41
			c-4.03,2.54-6.51,12.1-6.5,12.11c0.04,0.14,0.09,0.28,0.13,0.43c12.26,11.37,25.44,21.49,42.63,29.04
			c3.18,1.4,7.29-1.24,8.27-5.42c0.3-1.27,0.46-2.53,0.3-3.66c-0.58-4.08,1.59-6.83,2.95-8.09c0.81,15.94,1.33,32,1.5,48.13
			c0.03,2.61,1.84,4.11,3.91,3.11c1.84-0.89,3.11-3.54,2.9-5.84c-1.44-15.44-3.43-30.82-5.99-46.14c1.59,0.32,4.22,1.47,4.65,5.48
			c0.12,1.13,0.52,2.18,1.07,3.14c1.8,3.12,5.95,2.91,8.55-0.35c12.45-15.62,22.02-29.49,28.54-42.52c0.88-1.74,0.4-3.66-1.2-4.51
			c-1.04-0.55-2.13-0.92-3.21-0.94c-4.63-0.08-4.24-4.13-0.16-4.2c1.35-0.02,2.78,0.74,4.2,1.73c1.51,1.05,3.93,0.2,4.66-1.61
			c4.07-10.21,6.1-19.91,6.14-29.22C137.61,101.72,133.7,99.52,129.21,100.24z"/>
		<g id="XMLID_10226_">
			<defs>
				<path id="XMLID_10227_" d="M129.21,100.24c-8.33,1.29-13.46,11.44-21.28,10.95c-7.91-0.47-0.86-3.42,4.39-9.12
					c5.25-5.75,18.59-6.93,21.55-10.35c1.55-1.81,2.63-4.86,3.31-7.37c-3.35-10.71-9.53-20.82-17.7-30.16
					c-1.54-1.77-5.5-1.63-6.49,0.25c-0.65,1.24-1.35,2.65-2.02,4.18c-2.34,5.23-9.84,8.57-13.69,8.93c-3.9,0.31,7.89-5.41,8.97-8.66
					c1-3.34,0.53-12.35,0.25-15.37c-0.12-1.37-1.18-2.94-2.33-4.26c-6.52-5.53-13.53-10.64-20.49-15.22
					c-2.63-1.73-7.16-1.57-8.57,0.41c-0.88,1.23-1.28,2.78-0.42,4.62c2.32,5.03,1.32,7.68-1.47,7.88c-2.8,0.2-0.6-1.09-1.87-6.39
					c-0.94-3.86-1.32-6.63,0.34-9.38c1.26-2.07,0.1-4.54-2.86-6.23c-8.86-5.07-16.8-9.01-22.21-11.56c-4.06-1.92-9.61-1.67-12,0.63
					c-3.6,3.43-8.87,9.03-14.01,16.68c0.3,0.68,0.5,1.14,0.8,1.82c5.71,2.88,7.57,5.87,9.73,10.67c2.34,5.21,5.06,5.98,2.47,6.33
					c-2.58,0.36-5.13-1.96-6.41-7.15c-0.58-2.36-2.63-3.98-4.71-5.05c-2.37-1.21-5.65-0.66-6.62,1.1
					c-2.69,4.84-5.19,10.25-7.32,16.15l0,0c-0.01-0.01-1.74,5.2-0.06,8.35c1.7,3.14,6.72,12.35,9.47,15.38
					c2.83,3,16.23,5.12,12.65,5.93c-3.55,0.77-11.86-0.26-16.92-4.9c-0.93-0.86-1.85-1.68-2.74-2.44c-2.81-2.43-7.9-1.2-8.33,2.07
					c-1.3,9.65-1.5,19.9-0.41,30.22c0.13,1.25,0.6,2.45,1.36,3.5c1.85,2.58,4.97,6.6,7.73,8.19c4.16,2.36,16.25-1.72,23.36,1.76
					c7.07,3.4,14.38,3.12,7.73,6.92c-6.53,3.89-15.32-3.86-23.14-1.8c-5.32,1.44-7.7,7.38-8.63,10.97c-0.44,1.66-0.34,3.39,0.3,4.92
					c3.67,8.79,8.44,17.14,14.32,24.78c1.38,1.79,4.15,1.3,5.24-0.9c1.58-3.19,3.11-7.49,5.35-8.76c3.58-2.02,4.92,1.87,0.91,4.41
					c-4.03,2.54-6.51,12.1-6.5,12.11c0.04,0.14,0.09,0.28,0.13,0.43c12.26,11.37,25.44,21.49,42.63,29.04
					c3.18,1.4,7.29-1.24,8.27-5.42c0.3-1.27,0.46-2.53,0.3-3.66c-0.58-4.08,1.59-6.83,2.95-8.09c0.81,15.94,1.33,32,1.5,48.13
					c0.03,2.61,1.84,4.11,3.91,3.11c1.84-0.89,3.11-3.54,2.9-5.84c-1.44-15.44-3.43-30.82-5.99-46.14c1.59,0.32,4.22,1.47,4.65,5.48
					c0.12,1.13,0.52,2.18,1.07,3.14c1.8,3.12,5.95,2.91,8.55-0.35c12.45-15.62,22.02-29.49,28.54-42.52c0.88-1.74,0.4-3.66-1.2-4.51
					c-1.04-0.55-2.13-0.92-3.21-0.94c-4.63-0.08-4.24-4.13-0.16-4.2c1.35-0.02,2.78,0.74,4.2,1.73c1.51,1.05,3.93,0.2,4.66-1.61
					c4.07-10.21,6.1-19.91,6.14-29.22C137.61,101.72,133.7,99.52,129.21,100.24z M83.28,85.58c2.35-3.01,2.54-4.56,5.83-7.67
					c3.32-3.09,6.45-1.01,5.21,2.74c-1.25,3.75-7.84,6.71-7.83,6.73C83.33,89.2,80.95,88.62,83.28,85.58z M103.77,150.26
					c-4.25,6.21-13.9,8.3-13.92,8.32c-1.35,0.37-3.09-1.44-0.47-3.3c2.62-1.87,6.21-7.61,10.64-10
					C104.46,142.88,108.06,144.04,103.77,150.26z M88.5,110.43c-6.06,1.89-1.6-2.99,0.42-8.85c2.01-5.85,8.56-6.34,17.21-10.01
					c8.66-3.66,14.39-8.51,14.77-4.94c0.32,3.54-11.11,9.89-19.46,11.94C92.94,100.52,88.48,110.42,88.5,110.43z"/>
			</defs>
			<clipPath id="XMLID_3_">
				<use xlink:href="#XMLID_10227_"  style="overflow:visible;"/>
			</clipPath>
			<path id="XMLID_10259_" class="st1" d="M22.39-14c0,0,9.14,10.42,23.65,38.15s30.81,102.44,30.15,119.22s8.74,20.16,10.42,44.11
				c1.67,23.94,3.55,47.97,3.55,47.97s-17.4-9.46-16.55-33.09c0,0-64.92-10.59-77.11-99.22C-15.68,14.49,22.39-14,22.39-14z"/>
		</g>
		<path id="XMLID_10225_" class="st2" d="M89.99,228.83c0,0-2.97-43.61-4.2-51.75C84.55,168.95,65.18,43.05,39.9,4.04"/>
		<path id="XMLID_10224_" class="st2" d="M66.54,79.14c0,0,24.58-19.72,21.93-41.84"/>
		<path id="XMLID_10223_" class="st2" d="M76.89,126.45c0,0,42-43.24,42-55.46"/>
		<path id="XMLID_10222_" class="st2" d="M83.64,163.66c0,0,18.19-37.57,35.25-46.06"/>
		<path id="XMLID_10221_" class="st2" d="M62.32,62.84c0,0-32.88-3.22-42.82-18.38"/>
		<path id="XMLID_10220_" class="st2" d="M72.26,103.97c0,0-46.76-1.31-58.06-18.59"/>
		<path id="XMLID_10219_" class="st2" d="M80.83,147.45c0,0-35.8-9.47-50.58-10.94"/>
	</g>
	<g id="XMLID_10134_">
		
			<linearGradient id="XMLID_4_" gradientUnits="userSpaceOnUse" x1="-3937.4602" y1="3354.2241" x2="-3919.1765" y2="3556.4636" gradientTransform="matrix(0.5497 0.8353 -0.8353 0.5497 5204.8047 1532.1145)">
			<stop  offset="0" style="stop-color:#95D7FF"/>
			<stop  offset="1" style="stop-color:#4277FF"/>
		</linearGradient>
		<path id="XMLID_10174_" class="st3" d="M184.32,177.02c-4-3.72-14.26-0.87-16.6-5.31c-2.38-4.47,2.56-2.34,9.16-2.67
			c6.64-0.37,12.29,6.08,16.2,5.78c2.05-0.17,4.98-1.27,7.31-2.29c7.78-7.67,14.06-16.52,19-26c0.94-1.79-0.56-3.82-2.48-3.31
			c-1.26,0.33-2.69,0.74-4.2,1.22c-5.19,1.63-10.6-0.53-12.26-2.37c-1.63-1.91,7.28,1.23,10.38,0.01c3.14-1.3,10.51-6.51,12.93-8.32
			c1.1-0.81,2.04-2.24,2.75-3.58c2.34-6.51,4.15-13.05,5.54-19.27c0.53-2.35-1.19-4.67-3.34-4.33c-1.33,0.21-2.77,0.85-4.01,2.32
			c-3.39,4-5.95,4.92-7.09,3.55c-1.15-1.38,0.7-0.92,4.69-4.51c2.9-2.62,5.07-4.35,7.95-4.97c2.17-0.47,3.83-2.44,4.2-4.95
			c1.13-7.5,1.64-13.89,1.88-18.17c0.18-3.22-1.97-6.03-4.73-6.04c-4.12-0.03-10.65,0.24-18.84,1.72c-0.46,0.53-0.77,0.89-1.24,1.43
			c-0.41,4.62-2.25,7.25-5.5,11.05c-3.53,4.11-3.22,5.98-4.42,4.8c-1.21-1.17-0.16-3.81,3.73-7.34c1.77-1.61,2.41-3.59,2.57-5.28
			c0.18-1.93-1.43-3.36-3.24-2.91c-4.98,1.23-10.38,2.87-16.06,4.99l0,0c0-0.01-4.95,1.93-7,4.56c-2.03,2.63-7.96,10.36-9.53,13.49
			c-1.52,3.16,1.4,11.45-0.52,9.99c-1.89-1.46-3.94-6.45-1.83-11.7c0.39-0.97,0.75-1.91,1.08-2.8c1.04-2.83-1.76-4.87-4.65-3.29
			c-8.52,4.61-17.15,10.14-25.39,16.39c-1,0.76-1.84,1.67-2.45,2.65c-1.5,2.4-3.77,6.27-4.14,8.62c-0.51,3.51,7.12,7.7,6.71,13.4
			c-0.37,5.63,2.43,9.37-3.08,7.92c-5.54-1.34-2.14-10.28-6.6-13.3c-3.06-2.04-8.86-0.04-12.18,1.44c-1.54,0.68-2.95,1.68-4.01,2.87
			c-6.06,6.79-11.37,13.91-15.68,21.24c-1.01,1.72,0.37,2.92,2.58,2.3c3.22-0.91,7.34-2.46,9.19-1.97c2.94,0.8,0.16,3.65-3.37,2.91
			c-3.53-0.75-12.39,3.19-12.39,3.2c-0.1,0.1-0.21,0.2-0.31,0.3c-5.2,12.77-9.04,25.35-9.34,38.65c-0.06,2.46,3.59,3.19,7.43,1.42
			c1.16-0.54,2.27-1.14,3.17-1.85c3.2-2.55,6.26-2.91,7.79-2.88c-13.03,9.2-26.27,18.3-39.68,27.26c-2.17,1.45-2.79,3.24-1.23,3.79
			c1.38,0.49,4.05-0.29,5.89-1.66c12.39-9.25,24.54-18.77,36.45-28.55c0.29,1.02,0.25,3.05-2.95,5.49c-0.9,0.69-1.64,1.47-2.25,2.3
			c-1.98,2.67-0.35,4.76,3.29,4.35c17.41-1.96,32.35-4.5,45.51-8.19c1.76-0.49,3.2-1.8,3.35-3.12c0.1-0.86,0.02-1.64-0.34-2.22
			c-1.55-2.51,1.97-4.53,3.45-2.39c0.49,0.7,0.36,1.89,0.03,3.18c-0.35,1.38,1.21,2.2,2.97,1.59c9.96-3.45,18.77-7.7,26.55-12.79
			C186.02,182.31,186.49,179.02,184.32,177.02z"/>
		<g id="XMLID_10147_">
			<defs>
				<path id="XMLID_10148_" d="M184.32,177.02c-4-3.72-14.26-0.87-16.6-5.31c-2.38-4.47,2.56-2.34,9.16-2.67
					c6.64-0.37,12.29,6.08,16.2,5.78c2.05-0.17,4.98-1.27,7.31-2.29c7.78-7.67,14.06-16.52,19-26c0.94-1.79-0.56-3.82-2.48-3.31
					c-1.26,0.33-2.69,0.74-4.2,1.22c-5.19,1.63-10.6-0.53-12.26-2.37c-1.63-1.91,7.28,1.23,10.38,0.01
					c3.14-1.3,10.51-6.51,12.93-8.32c1.1-0.81,2.04-2.24,2.75-3.58c2.34-6.51,4.15-13.05,5.54-19.27c0.53-2.35-1.19-4.67-3.34-4.33
					c-1.33,0.21-2.77,0.85-4.01,2.32c-3.39,4-5.95,4.92-7.09,3.55c-1.15-1.38,0.7-0.92,4.69-4.51c2.9-2.62,5.07-4.35,7.95-4.97
					c2.17-0.47,3.83-2.44,4.2-4.95c1.13-7.5,1.64-13.89,1.88-18.17c0.18-3.22-1.97-6.03-4.73-6.04c-4.12-0.03-10.65,0.24-18.84,1.72
					c-0.46,0.53-0.77,0.89-1.24,1.43c-0.41,4.62-2.25,7.25-5.5,11.05c-3.53,4.11-3.22,5.98-4.42,4.8c-1.21-1.17-0.16-3.81,3.73-7.34
					c1.77-1.61,2.41-3.59,2.57-5.28c0.18-1.93-1.43-3.36-3.24-2.91c-4.98,1.23-10.38,2.87-16.06,4.99l0,0c0-0.01-4.95,1.93-7,4.56
					c-2.03,2.63-7.96,10.36-9.53,13.49c-1.52,3.16,1.4,11.45-0.52,9.99c-1.89-1.46-3.94-6.45-1.83-11.7
					c0.39-0.97,0.75-1.91,1.08-2.8c1.04-2.83-1.76-4.87-4.65-3.29c-8.52,4.61-17.15,10.14-25.39,16.39c-1,0.76-1.84,1.67-2.45,2.65
					c-1.5,2.4-3.77,6.27-4.14,8.62c-0.51,3.51,7.12,7.7,6.71,13.4c-0.37,5.63,2.43,9.37-3.08,7.92c-5.54-1.34-2.14-10.28-6.6-13.3
					c-3.06-2.04-8.86-0.04-12.18,1.44c-1.54,0.68-2.95,1.68-4.01,2.87c-6.06,6.79-11.37,13.91-15.68,21.24
					c-1.01,1.72,0.37,2.92,2.58,2.3c3.22-0.91,7.34-2.46,9.19-1.97c2.94,0.8,0.16,3.65-3.37,2.91c-3.53-0.75-12.39,3.19-12.39,3.2
					c-0.1,0.1-0.21,0.2-0.31,0.3c-5.2,12.77-9.04,25.35-9.34,38.65c-0.06,2.46,3.59,3.19,7.43,1.42c1.16-0.54,2.27-1.14,3.17-1.85
					c3.2-2.55,6.26-2.91,7.79-2.88c-13.03,9.2-26.27,18.3-39.68,27.26c-2.17,1.45-2.79,3.24-1.23,3.79
					c1.38,0.49,4.05-0.29,5.89-1.66c12.39-9.25,24.54-18.77,36.45-28.55c0.29,1.02,0.25,3.05-2.95,5.49
					c-0.9,0.69-1.64,1.47-2.25,2.3c-1.98,2.67-0.35,4.76,3.29,4.35c17.41-1.96,32.35-4.5,45.51-8.19c1.76-0.49,3.2-1.8,3.35-3.12
					c0.1-0.86,0.02-1.64-0.34-2.22c-1.55-2.51,1.97-4.53,3.45-2.39c0.49,0.7,0.36,1.89,0.03,3.18c-0.35,1.38,1.21,2.2,2.97,1.59
					c9.96-3.45,18.77-7.7,26.55-12.79C186.02,182.31,186.49,179.02,184.32,177.02z M180.49,144.52c3.34-0.41,4.7-1.15,8.45-1.12
					c3.75,0.07,3.11,2.88-0.47,4.28c-3.57,1.4-8.35-0.48-8.36-0.47C177.48,146.54,177.14,144.96,180.49,144.52z M133.63,190.98
					c-6.68,1.15-11.8-2.84-11.82-2.83c-0.78-0.52,0.12-2.43,2.6-2.06c2.48,0.37,8.53-0.88,12.08,0.16
					C140.03,187.3,140.33,189.85,133.63,190.98z M161.56,160.97c-3.7-2.19,1.94-2.49,7.54-4.64c5.59-2.15,8.29,1.07,14.39,3.65
					c6.09,2.6,12.15,2.98,9.3,5.14c-2.84,2.11-12.15-0.47-16.79-3.79C171.39,157.88,161.56,160.95,161.56,160.97z"/>
			</defs>
			<clipPath id="XMLID_5_">
				<use xlink:href="#XMLID_10148_"  style="overflow:visible;"/>
			</clipPath>
			<path id="XMLID_10172_" class="st4" d="M242.35,57.38c0,0-5.5,10.6-23.59,33.55s-74.79,72.71-89.04,81.58
				s-13.78,15.73-33.2,29.79c-19.41,14.05-38.83,28.26-38.83,28.26s1.81-14.46,21.84-27c0,0-13.89-40.36,55.89-95.57
				C205.22,52.79,242.35,57.38,242.35,57.38z"/>
		</g>
		<path id="XMLID_10145_" class="st2" d="M63.18,226.84c0,0,35.39-25.55,41.75-30.68c6.36-5.13,104.75-84.65,128.48-119.54"/>
		<path id="XMLID_10144_" class="st2" d="M180.01,132.07c0,0,25.09,2.24,42.63-11.33"/>
		<path id="XMLID_10143_" class="st2" d="M144.1,163.59c0,0,50.83-1.42,61.03-8.14"/>
		<path id="XMLID_10142_" class="st2" d="M115.39,187.64c0,0,37.76-10.98,50.82-6.56"/>
		<path id="XMLID_10141_" class="st2" d="M192.15,120.87c0,0-8.83-19.26,0.36-32.89"/>
		<path id="XMLID_10140_" class="st2" d="M161.26,148.77c0,0-15.28-25.6-4.8-41.11"/>
		<path id="XMLID_10138_" class="st2" d="M127.95,177.23c0,0-4.63-24.26-8.57-32.93"/>
	</g>
	<g id="XMLID_6442_">
		
			<radialGradient id="XMLID_6_" cx="-3504.7168" cy="5521.6943" r="95.1624" gradientTransform="matrix(0.2653 0.9642 -0.9642 0.2653 6483.8501 2098.123)" gradientUnits="userSpaceOnUse">
			<stop  offset="0.0225" style="stop-color:#B9ACFF"/>
			<stop  offset="0.5449" style="stop-color:#81D4FF"/>
			<stop  offset="1" style="stop-color:#906FFF"/>
		</radialGradient>
		<path id="XMLID_6446_" class="st5" d="M221.14,221.23c25.55,17.88,46.99,17.18,46.99,17.18s-5.59-17.02-26.04-33.6
			c0.3-0.05,0.6-0.09,0.91-0.15c36.54-6.45,54-25.09,54-25.09s-22.78-11.54-59.32-5.09c-0.75,0.13-1.46,0.27-2.18,0.42
			c17.97-26.99,17.25-49.22,17.25-49.22s-21.75,7.14-41.17,34.21c-6.08-33.17-22.99-49.02-22.99-49.02s-10.3,20.36-4.95,53.15
			c-20.87-12.08-37.22-11.55-37.22-11.55s6.37,19.44,30.72,36.49c12.63,8.84,21.16,8.77,25.7,7.53l-22.72,30.37
			c-0.86,1.15-0.6,2.79,0.58,3.61c1.2,0.84,2.87,0.49,3.63-0.76l20.12-32.96C204.27,201.18,206.04,210.66,221.14,221.23z"/>
		<g id="XMLID_6443_">
			
				<radialGradient id="XMLID_7_" cx="-3002.4458" cy="-93.0287" r="87.8319" gradientTransform="matrix(0.9967 -0.0806 0.0806 0.9967 3227.1704 40.7992)" gradientUnits="userSpaceOnUse">
				<stop  offset="5.618000e-03" style="stop-color:#C5C7FF"/>
				<stop  offset="0.5449" style="stop-color:#81D4FF"/>
				<stop  offset="1" style="stop-color:#90A9FF"/>
			</radialGradient>
			<path id="XMLID_6445_" class="st6" d="M184.33,229.72l17.83-29.21l-20.52,30.38C182.66,231.1,183.75,230.67,184.33,229.72z"/>
			
				<radialGradient id="XMLID_8_" cx="-3002.4458" cy="-93.0287" r="87.8319" gradientTransform="matrix(0.9967 -0.0806 0.0806 0.9967 3227.1704 40.7992)" gradientUnits="userSpaceOnUse">
				<stop  offset="5.618000e-03" style="stop-color:#C5C7FF"/>
				<stop  offset="0.5449" style="stop-color:#81D4FF"/>
				<stop  offset="1" style="stop-color:#90A9FF"/>
			</radialGradient>
			<path id="XMLID_6444_" class="st7" d="M297,179.57c0,0-22.78-11.54-59.32-5.09c-0.75,0.13-1.46,0.28-2.18,0.42
				c17.97-26.99,17.25-49.22,17.25-49.22s-0.03,0.01-0.08,0.03l-48.23,71.41c-0.06,4.57,2.01,13.82,16.71,24.1
				c25.55,17.88,46.99,17.18,46.99,17.18s-5.59-17.02-26.04-33.6c0.3-0.05,0.6-0.09,0.91-0.15C279.55,198.21,297,179.57,297,179.57z
				"/>
		</g>
	</g>
</g>
</svg>
