<?xml version="1.0" standalone="no"?><!DOCTYPE svg PUBLIC "-//W3C//DTD SVG 1.1//EN" "http://www.w3.org/Graphics/SVG/1.1/DTD/svg11.dtd"><svg t="1662285238176" class="icon" viewBox="0 0 1024 1024" version="1.1" xmlns="http://www.w3.org/2000/svg" p-id="6490" xmlns:xlink="http://www.w3.org/1999/xlink" width="200" height="200"><path d="M517.12 5.76a22.4 22.4 0 0 0-28.8 0L128 198.4a35.2 35.2 0 0 0-12.8 27.52 38.4 38.4 0 0 0 17.28 30.08l142.08 92.16a17.28 17.28 0 0 0 7.68 4.48h10.24l-4.48 9.6a261.12 261.12 0 0 0-21.76 103.04A240 240 0 0 0 512 710.4a227.2 227.2 0 0 0 97.92-21.76h7.68a333.44 333.44 0 0 1 220.8 267.52v10.88H181.12v-10.88A335.36 335.36 0 0 1 320 725.76a32.64 32.64 0 0 0 8.96-43.52 23.68 23.68 0 0 0-19.2-11.52 50.56 50.56 0 0 0-24.96 4.48 384 384 0 0 0-169.6 320V1024H896v-28.8a392.96 392.96 0 0 0-208.64-345.6l-11.52-5.76 8.96-8.96a256 256 0 0 0 68.48-173.44 249.6 249.6 0 0 0-22.4-103.68l-3.84-7.68L873.6 256a37.76 37.76 0 0 0 12.8-27.52 35.84 35.84 0 0 0-13.44-27.52zM512 653.44a187.52 187.52 0 0 1-185.6-184.96A188.16 188.16 0 0 1 512 282.88a185.6 185.6 0 0 1 0 370.56z m181.12-353.92l-5.12-5.76A245.12 245.12 0 0 0 512 218.88a239.36 239.36 0 0 0-183.04 82.56L320 309.76l-7.68-8.32a8.32 8.32 0 0 0-4.48-3.84l-100.48-64L512 76.16l291.84 156.8z" p-id="6491"></path><path d="M858.88 192a30.08 30.08 0 0 0-28.16 27.52v267.52h-3.2a44.16 44.16 0 0 0-17.28 35.84 48.64 48.64 0 1 0 96.64 0 44.16 44.16 0 0 0-17.28-35.84h-3.2V220.8a30.08 30.08 0 0 0-27.52-28.8z" p-id="6492"></path></svg>